<svg width="511" height="321" viewBox="0 0 511 321" fill="none" xmlns="http://www.w3.org/2000/svg">
<circle cx="103.906" cy="152.757" r="83.7451" fill="#F3F3FF"/>
<circle cx="220.218" cy="116.313" r="116.313" fill="#F3F3FF"/>
<circle cx="427.255" cy="152.757" r="83.7451" fill="#F3F3FF"/>
<circle cx="331.103" cy="116.313" r="56.6055" fill="#F3F3FF"/>
<circle cx="446.64" cy="74.44" r="41.8725" fill="#F3F3FF"/>
<circle cx="52.3407" cy="96.5394" r="32.1798" fill="#F3F3FF"/>
<circle cx="12.019" cy="222.932" r="12.019" fill="#F3F3FF"/>
<circle cx="422.602" cy="38.7709" r="21.7117" fill="#F3F3FF"/>
<rect x="95.3763" y="152.757" width="355.141" height="83.7451" fill="#F3F3FF"/>
<circle cx="132.338" cy="198.589" r="71.0372" fill="white"/>
<circle cx="231" cy="167.675" r="98.6627" fill="white"/>
<circle cx="406.62" cy="198.589" r="71.0372" fill="white"/>
<circle cx="325.059" cy="167.675" r="48.0159" fill="white"/>
<circle cx="423.064" cy="132.156" r="35.5186" fill="white"/>
<circle cx="88.5971" cy="150.902" r="27.2967" fill="white"/>
<circle cx="54.3939" cy="258.116" r="10.1951" fill="white"/>
<circle cx="402.673" cy="101.9" r="18.417" fill="white"/>
<rect x="125.102" y="198.589" width="301.25" height="71.0372" fill="white"/>
<path d="M108.15 120.644V173.134H68.3965L107.502 120.644H108.15ZM108.15 198.407V233.401H137.317V198.407H157.41V173.134H137.317V82.1942H109.878L44.1987 170.326V198.407H108.15Z" fill="#6060D0"/>
<path d="M296.985 181.06C324.9 142.677 385.77 134.69 387.321 177.183C389.26 230.299 443.244 216.014 468.74 221.382C490.839 226.034 491.615 258.214 443.151 252.398C394.166 246.52 389.647 277.987 358.243 277.987" stroke="#BCBCF3" stroke-width="12"/>
<path d="M407.461 120.644V173.134H367.708L406.813 120.644H407.461ZM407.461 198.407V233.401H436.628V198.407H456.721V173.134H436.628V82.1942H409.19L343.51 170.326V198.407H407.461Z" fill="#6060D0"/>
<ellipse cx="255.5" cy="157.797" rx="81.0311" ry="78.7049" fill="#6060D0"/>
<ellipse cx="255.5" cy="157.797" rx="73.2769" ry="70.9507" fill="white"/>
<ellipse cx="255.5" cy="157.797" rx="67.849" ry="65.5228" fill="#6060D0"/>
<rect x="224.871" y="131.046" width="14.7329" height="53.5038" rx="7.36646" fill="white"/>
<rect x="272.172" y="131.046" width="14.7329" height="53.5038" rx="7.36646" fill="white"/>
<path d="M311.645 236.502H328.696C351.866 236.502 370.649 255.285 370.649 278.455V278.455C370.649 301.625 351.866 320.408 328.696 320.408H311.645V236.502Z" fill="#2F2F94"/>
<ellipse cx="311.645" cy="278.455" rx="25.9838" ry="41.953" fill="#3F3FAC"/>
<ellipse cx="309.209" cy="278.455" rx="23.0065" ry="37.081" fill="#6060D0"/>
<path d="M267.748 272.899L262.607 270.112L301.659 264.652L306.8 267.438L267.748 272.899Z" fill="#A0A0DF"/>
<path d="M306.8 267.438L306.777 281.91L267.725 287.393C264.005 287.91 261.006 285.101 261.006 281.101C261.006 277.101 264.028 273.438 267.748 272.921L306.8 267.438Z" fill="#BCBCF3"/>
<path d="M261.006 281.101C261.006 280.966 261.006 280.854 261.006 280.719C261.006 280.674 261.006 280.629 261.006 280.607C261.006 280.517 261.006 280.449 261.029 280.359C261.029 280.314 261.051 280.27 261.051 280.202C261.051 280.135 261.074 280.067 261.074 279.977C261.074 279.932 261.096 279.865 261.096 279.82C261.096 279.753 261.119 279.685 261.141 279.618C261.141 279.573 261.164 279.505 261.164 279.461C261.187 279.393 261.187 279.326 261.209 279.258C261.232 279.213 261.232 279.146 261.254 279.101C261.277 279.034 261.277 278.966 261.299 278.899C261.322 278.854 261.322 278.786 261.344 278.741C261.367 278.674 261.39 278.607 261.412 278.562C261.435 278.517 261.457 278.449 261.457 278.404C261.48 278.337 261.502 278.292 261.525 278.225C261.592 278.045 261.66 277.888 261.728 277.708C261.75 277.685 261.75 277.64 261.773 277.618C261.84 277.461 261.931 277.303 262.021 277.146C262.043 277.123 262.066 277.079 262.066 277.056C262.134 276.944 262.179 276.831 262.246 276.741C262.269 276.719 262.291 276.674 262.314 276.652C262.404 276.517 262.472 276.404 262.562 276.27C262.585 276.247 262.607 276.225 262.607 276.202C262.675 276.112 262.742 276.022 262.81 275.91C262.833 275.865 262.855 275.843 262.9 275.798C262.968 275.708 263.058 275.618 263.126 275.528C263.148 275.506 263.171 275.483 263.193 275.461C263.283 275.348 263.396 275.236 263.486 275.146C263.509 275.123 263.531 275.101 263.554 275.079C263.644 274.989 263.712 274.921 263.802 274.854C263.825 274.831 263.87 274.786 263.892 274.764C264.005 274.652 264.118 274.562 264.253 274.472L264.276 274.449C264.388 274.359 264.501 274.27 264.614 274.202C264.636 274.18 264.681 274.157 264.704 274.135C264.862 274.022 265.02 273.932 265.177 273.843C265.2 273.82 265.223 273.82 265.245 273.798C265.403 273.708 265.583 273.618 265.741 273.528C265.764 273.528 265.786 273.506 265.786 273.506C265.899 273.461 266.034 273.393 266.147 273.348C266.192 273.326 266.215 273.326 266.26 273.303C266.395 273.258 266.553 273.191 266.688 273.146C266.711 273.146 266.711 273.146 266.733 273.146C266.868 273.101 267.004 273.079 267.139 273.034C267.184 273.034 267.207 273.011 267.252 273.011C267.41 272.989 267.545 272.944 267.703 272.921L262.607 270.112C262.449 270.135 262.314 270.157 262.156 270.202C262.111 270.202 262.088 270.225 262.043 270.225C261.908 270.247 261.773 270.292 261.638 270.337C261.615 270.337 261.615 270.337 261.592 270.337C261.457 270.382 261.299 270.427 261.164 270.494C261.119 270.517 261.096 270.517 261.051 270.539C260.916 270.584 260.803 270.629 260.691 270.697C260.668 270.697 260.668 270.719 260.645 270.719C260.645 270.719 260.645 270.719 260.623 270.719C260.443 270.809 260.285 270.876 260.127 270.989C260.104 271.011 260.082 271.011 260.059 271.034C259.901 271.124 259.744 271.213 259.586 271.326C259.563 271.326 259.563 271.348 259.541 271.348C259.518 271.371 259.518 271.371 259.496 271.393C259.383 271.483 259.27 271.55 259.157 271.64L259.135 271.663C259.022 271.753 258.887 271.865 258.774 271.955C258.751 271.977 258.751 271.977 258.729 271.977C258.706 272 258.684 272.022 258.684 272.022C258.594 272.09 258.526 272.18 258.436 272.247C258.413 272.27 258.391 272.292 258.368 272.315C258.255 272.427 258.165 272.517 258.075 272.629C258.075 272.629 258.075 272.629 258.053 272.652C258.03 272.674 258.03 272.697 258.007 272.697C257.94 272.786 257.85 272.876 257.782 272.966C257.759 273.011 257.737 273.034 257.692 273.079C257.624 273.168 257.556 273.258 257.489 273.371C257.466 273.393 257.466 273.416 257.444 273.438C257.444 273.438 257.444 273.461 257.421 273.461C257.331 273.595 257.241 273.708 257.173 273.843C257.151 273.865 257.128 273.91 257.106 273.932C257.038 274.045 256.97 274.157 256.925 274.247C256.925 274.292 256.903 274.315 256.903 274.315C256.903 274.315 256.903 274.337 256.88 274.337C256.79 274.494 256.722 274.652 256.632 274.809C256.61 274.831 256.61 274.876 256.587 274.899C256.519 275.056 256.452 275.236 256.384 275.416C256.384 275.416 256.384 275.416 256.384 275.438C256.361 275.483 256.339 275.55 256.339 275.595C256.316 275.663 256.294 275.73 256.271 275.775C256.249 275.843 256.226 275.91 256.204 275.955C256.181 276 256.181 276.067 256.159 276.112C256.136 276.18 256.136 276.247 256.113 276.314C256.091 276.359 256.091 276.427 256.068 276.472C256.046 276.539 256.046 276.607 256.023 276.674C256.023 276.719 256.001 276.786 256.001 276.831C255.978 276.899 255.978 276.966 255.978 277.034C255.978 277.079 255.956 277.146 255.956 277.191C255.956 277.258 255.933 277.326 255.933 277.416C255.933 277.461 255.911 277.505 255.911 277.573C255.911 277.663 255.888 277.73 255.888 277.82C255.888 277.865 255.888 277.91 255.888 277.932C255.888 278.045 255.888 278.18 255.888 278.314C255.865 280.876 257.106 282.966 258.977 283.977L264.118 286.764C262.246 285.753 261.006 283.663 261.006 281.101Z" fill="#9494D8"/>
<path d="M285.07 282.643L279.93 279.856L318.981 274.396L324.122 277.182L285.07 282.643Z" fill="#A0A0DF"/>
<path d="M324.122 277.182L324.1 291.654L285.048 297.137C281.328 297.654 278.329 294.845 278.329 290.845C278.329 286.845 281.35 283.182 285.07 282.665L324.122 277.182Z" fill="#BCBCF3"/>
<path d="M278.329 290.845C278.329 290.71 278.329 290.598 278.329 290.463C278.329 290.418 278.329 290.373 278.329 290.35C278.329 290.261 278.329 290.193 278.351 290.103C278.351 290.058 278.374 290.013 278.374 289.946C278.374 289.879 278.396 289.811 278.396 289.721C278.396 289.676 278.419 289.609 278.419 289.564C278.419 289.497 278.441 289.429 278.464 289.362C278.464 289.317 278.487 289.249 278.487 289.204C278.509 289.137 278.509 289.07 278.532 289.002C278.554 288.957 278.554 288.89 278.577 288.845C278.599 288.777 278.599 288.71 278.622 288.643C278.644 288.598 278.644 288.53 278.667 288.485C278.689 288.418 278.712 288.351 278.735 288.306C278.757 288.261 278.78 288.193 278.78 288.148C278.802 288.081 278.825 288.036 278.847 287.968C278.915 287.789 278.983 287.631 279.05 287.452C279.073 287.429 279.073 287.384 279.095 287.362C279.163 287.204 279.253 287.047 279.343 286.89C279.366 286.867 279.388 286.822 279.388 286.8C279.456 286.688 279.501 286.575 279.569 286.485C279.591 286.463 279.614 286.418 279.636 286.395C279.727 286.261 279.794 286.148 279.884 286.013C279.907 285.991 279.93 285.969 279.93 285.946C279.997 285.856 280.065 285.766 280.132 285.654C280.155 285.609 280.178 285.586 280.223 285.542C280.29 285.452 280.381 285.362 280.448 285.272C280.471 285.249 280.493 285.227 280.516 285.204C280.606 285.092 280.719 284.98 280.809 284.89C280.831 284.867 280.854 284.845 280.877 284.822C280.967 284.733 281.034 284.665 281.125 284.598C281.147 284.575 281.192 284.53 281.215 284.508C281.328 284.395 281.44 284.306 281.576 284.216L281.598 284.193C281.711 284.103 281.824 284.013 281.936 283.946C281.959 283.924 282.004 283.901 282.026 283.879C282.184 283.766 282.342 283.676 282.5 283.587C282.523 283.564 282.545 283.564 282.568 283.542C282.725 283.452 282.906 283.362 283.064 283.272C283.086 283.272 283.109 283.249 283.109 283.249C283.221 283.204 283.357 283.137 283.469 283.092C283.515 283.07 283.537 283.07 283.582 283.047C283.718 283.002 283.875 282.935 284.011 282.89C284.033 282.89 284.033 282.89 284.056 282.89C284.191 282.845 284.326 282.822 284.462 282.778C284.507 282.778 284.529 282.755 284.574 282.755C284.732 282.733 284.867 282.688 285.025 282.665L279.93 279.856C279.772 279.879 279.636 279.901 279.479 279.946C279.434 279.946 279.411 279.969 279.366 279.969C279.231 279.991 279.095 280.036 278.96 280.081C278.937 280.081 278.937 280.081 278.915 280.081C278.78 280.126 278.622 280.171 278.487 280.238C278.441 280.261 278.419 280.261 278.374 280.283C278.239 280.328 278.126 280.373 278.013 280.44C277.991 280.44 277.991 280.463 277.968 280.463C277.968 280.463 277.968 280.463 277.945 280.463C277.765 280.553 277.607 280.62 277.449 280.733C277.427 280.755 277.404 280.755 277.382 280.778C277.224 280.867 277.066 280.957 276.908 281.07C276.886 281.07 276.886 281.092 276.863 281.092C276.841 281.115 276.841 281.115 276.818 281.137C276.705 281.227 276.593 281.294 276.48 281.384L276.457 281.407C276.345 281.497 276.209 281.609 276.097 281.699C276.074 281.721 276.074 281.721 276.051 281.721C276.029 281.744 276.006 281.766 276.006 281.766C275.916 281.834 275.849 281.924 275.758 281.991C275.736 282.013 275.713 282.036 275.691 282.058C275.578 282.171 275.488 282.261 275.398 282.373C275.398 282.373 275.398 282.373 275.375 282.396C275.352 282.418 275.352 282.44 275.33 282.44C275.262 282.53 275.172 282.62 275.104 282.71C275.082 282.755 275.059 282.778 275.014 282.822C274.947 282.912 274.879 283.002 274.811 283.115C274.789 283.137 274.789 283.16 274.766 283.182C274.766 283.182 274.766 283.204 274.744 283.204C274.654 283.339 274.563 283.452 274.496 283.587C274.473 283.609 274.451 283.654 274.428 283.676C274.36 283.789 274.293 283.901 274.248 283.991C274.248 284.036 274.225 284.058 274.225 284.058C274.225 284.058 274.225 284.081 274.203 284.081C274.112 284.238 274.045 284.395 273.955 284.553C273.932 284.575 273.932 284.62 273.909 284.643C273.842 284.8 273.774 284.98 273.707 285.16C273.707 285.16 273.707 285.16 273.707 285.182C273.684 285.227 273.661 285.294 273.661 285.339C273.639 285.407 273.616 285.474 273.594 285.519C273.571 285.586 273.549 285.654 273.526 285.699C273.504 285.744 273.504 285.811 273.481 285.856C273.459 285.924 273.459 285.991 273.436 286.058C273.413 286.103 273.413 286.171 273.391 286.216C273.368 286.283 273.368 286.351 273.346 286.418C273.346 286.463 273.323 286.53 273.323 286.575C273.301 286.643 273.301 286.71 273.301 286.777C273.301 286.822 273.278 286.89 273.278 286.935C273.278 287.002 273.256 287.07 273.256 287.16C273.256 287.204 273.233 287.249 273.233 287.317C273.233 287.407 273.211 287.474 273.211 287.564C273.211 287.609 273.211 287.654 273.211 287.676C273.211 287.789 273.211 287.924 273.211 288.058C273.188 290.62 274.428 292.71 276.299 293.721L281.44 296.508C279.569 295.497 278.329 293.407 278.329 290.845Z" fill="#9494D8"/>
</svg>
