<?xml version="1.0" encoding="utf-8"?>
<!-- Generator: Adobe Illustrator 22.0.0, SVG Export Plug-In . SVG Version: 6.00 Build 0)  -->
<svg version="1.1" id="Layer_1" xmlns="http://www.w3.org/2000/svg" xmlns:xlink="http://www.w3.org/1999/xlink" x="0px" y="0px"
	 viewBox="0 0 32 32" style="enable-background:new 0 0 32 32;" xml:space="preserve">
<style type="text/css">
	.st0{fill:#FFFFFF;}
</style>
<path class="st0" d="M16,0.8C7.6,0.8,0.8,7.6,0.8,16S7.6,31.2,16,31.2S31.2,24.4,31.2,16S24.4,0.8,16,0.8z M22.4,22.4H9.6
	c-0.5,0-0.9-0.4-0.9-0.9s0.4-0.9,0.9-0.9h12.8c0.5,0,0.9,0.4,0.9,0.9C23.3,22,22.9,22.4,22.4,22.4L22.4,22.4z M22.4,16.9H9.6
	c-0.5,0-0.9-0.4-0.9-0.9s0.4-0.9,0.9-0.9h12.8c0.5,0,0.9,0.4,0.9,0.9C23.3,16.5,22.9,16.9,22.4,16.9z M22.4,11.4H9.6
	c-0.5,0-0.9-0.4-0.9-0.9s0.4-0.9,0.9-0.9h12.8c0.5,0,0.9,0.4,0.9,0.9C23.3,11,22.9,11.4,22.4,11.4z"/>
</svg>
